<?xml version="1.0" encoding="UTF-8"?>
<svg xmlns="http://www.w3.org/2000/svg" width="801" height="547" viewBox="0 0 801 547">
<rect width="100%" height="100%" fill="white"/>
<rect x="12" y="17" width="776" height="528" fill="#fff2cc"/>
<rect x="12" y="17" width="776" height="528" fill="none" stroke="#000" stroke-width="4"/>
<line x1="206.00" y1="17" x2="206.00" y2="545" stroke="#000" stroke-width="4"/>
<line x1="400.00" y1="17" x2="400.00" y2="545" stroke="#000" stroke-width="4"/>
<line x1="594.00" y1="17" x2="594.00" y2="545" stroke="#000" stroke-width="4"/>
<line x1="12" y1="122.60" x2="788" y2="122.60" stroke="#000" stroke-width="4"/>
<line x1="12" y1="228.20" x2="788" y2="228.20" stroke="#000" stroke-width="4"/>
<line x1="12" y1="333.80" x2="788" y2="333.80" stroke="#000" stroke-width="4"/>
<line x1="12" y1="439.40" x2="788" y2="439.40" stroke="#000" stroke-width="4"/>
<text x="26.00" y="45.00" font-family="Arial, Helvetica, sans-serif" font-size="22" fill="#111">1</text>
<text x="220.00" y="45.00" font-family="Arial, Helvetica, sans-serif" font-size="22" fill="#111">2</text>
<text x="414.00" y="45.00" font-family="Arial, Helvetica, sans-serif" font-size="22" fill="#111">3</text>
<text x="608.00" y="45.00" font-family="Arial, Helvetica, sans-serif" font-size="22" fill="#111">4</text>
<text x="26.00" y="150.60" font-family="Arial, Helvetica, sans-serif" font-size="22" fill="#111">5</text>
<text x="220.00" y="150.60" font-family="Arial, Helvetica, sans-serif" font-size="22" fill="#111">6</text>
<text x="414.00" y="150.60" font-family="Arial, Helvetica, sans-serif" font-size="22" fill="#111">7</text>
<text x="608.00" y="150.60" font-family="Arial, Helvetica, sans-serif" font-size="22" fill="#111">8</text>
<text x="26.00" y="256.20" font-family="Arial, Helvetica, sans-serif" font-size="22" fill="#111">9</text>
<text x="220.00" y="256.20" font-family="Arial, Helvetica, sans-serif" font-size="22" fill="#111">10</text>
<text x="414.00" y="256.20" font-family="Arial, Helvetica, sans-serif" font-size="22" fill="#111">11</text>
<text x="608.00" y="256.20" font-family="Arial, Helvetica, sans-serif" font-size="22" fill="#111">12</text>
<text x="26.00" y="361.80" font-family="Arial, Helvetica, sans-serif" font-size="22" fill="#111">13</text>
<text x="220.00" y="361.80" font-family="Arial, Helvetica, sans-serif" font-size="22" fill="#111">14</text>
<text x="414.00" y="361.80" font-family="Arial, Helvetica, sans-serif" font-size="22" fill="#111">15</text>
<text x="608.00" y="361.80" font-family="Arial, Helvetica, sans-serif" font-size="22" fill="#111">16</text>
<text x="26.00" y="467.40" font-family="Arial, Helvetica, sans-serif" font-size="22" fill="#111">17</text>
<text x="220.00" y="467.40" font-family="Arial, Helvetica, sans-serif" font-size="22" fill="#111">18</text>
<text x="414.00" y="467.40" font-family="Arial, Helvetica, sans-serif" font-size="22" fill="#111">19</text>
<text x="608.00" y="467.40" font-family="Arial, Helvetica, sans-serif" font-size="22" fill="#111">20</text>
</svg>