<?xml version="1.0" encoding="UTF-8"?>
<svg xmlns="http://www.w3.org/2000/svg" width="1890" height="604" viewBox="0 0 1890 604">
<defs>
<style>
  .serif { font-family:"Times New Roman","Liberation Serif",serif; fill:#000; font-weight:700; }
  .grid { stroke:#111; stroke-width:2; fill:none; }
  .header { fill:#dedede; }
  .body { fill:#f7f7f7; }
  .total { fill:#dedede; }
</style>
</defs>

<!-- Header -->
<rect x="4" y="9" width="1884" height="121" class="header"/>
<!-- Body -->
<rect x="4" y="130" width="1884" height="396" class="body"/>
<!-- Total cell -->
<rect x="1260" y="526" width="628" height="66" class="total"/>

<!-- Outer border -->
<rect x="4" y="9" width="1884" height="595" class="grid"/>

<!-- Vertical lines -->
<path d="M632 9 V526 M1260 9 V604" class="grid"/>

<!-- Horizontal header line and body lines -->
<path d="M4 130 H1888" class="grid"/>
<path d="M4 196 H1888" class="grid"/>\n<path d="M4 262 H1888" class="grid"/>\n<path d="M4 328 H1888" class="grid"/>\n<path d="M4 394 H1888" class="grid"/>\n<path d="M4 460 H1888" class="grid"/>\n
<!-- Header text -->
<text x="318.0" y="54" text-anchor="middle" class="serif" font-size="43">Number of fruits per</text>
<text x="318.0" y="104" text-anchor="middle" class="serif" font-size="43">branch</text>
<text x="946.0" y="54" text-anchor="middle" class="serif" font-size="43">Tally</text>
<text x="1574.0" y="54" text-anchor="middle" class="serif" font-size="43">Frequency</text>
<text x="1574.0" y="173" text-anchor="middle" class="serif" font-size="38">3</text>
<text x="1574.0" y="239" text-anchor="middle" class="serif" font-size="38">3</text>
<text x="1574.0" y="305" text-anchor="middle" class="serif" font-size="38">4</text>
<text x="1574.0" y="371" text-anchor="middle" class="serif" font-size="38">3</text>
<text x="1574.0" y="437" text-anchor="middle" class="serif" font-size="38">7</text>
<text x="1574.0" y="503" text-anchor="middle" class="serif" font-size="38">5</text>
<text x="318.0" y="173" text-anchor="middle" class="serif" font-size="38">0</text>
<text x="318.0" y="239" text-anchor="middle" class="serif" font-size="38">1</text>
<text x="318.0" y="305" text-anchor="middle" class="serif" font-size="38">2</text>
<text x="318.0" y="371" text-anchor="middle" class="serif" font-size="38">3</text>
<text x="318.0" y="437" text-anchor="middle" class="serif" font-size="38">4</text>
<text x="318.0" y="503" text-anchor="middle" class="serif" font-size="38">5</text>
<line x1="926.0" y1="141" x2="926.0" y2="182" stroke="#000" stroke-width="4"/>
<line x1="944.0" y1="141" x2="944.0" y2="182" stroke="#000" stroke-width="4"/>
<line x1="962.0" y1="141" x2="962.0" y2="182" stroke="#000" stroke-width="4"/>
<line x1="926.0" y1="207" x2="926.0" y2="248" stroke="#000" stroke-width="4"/>
<line x1="944.0" y1="207" x2="944.0" y2="248" stroke="#000" stroke-width="4"/>
<line x1="962.0" y1="207" x2="962.0" y2="248" stroke="#000" stroke-width="4"/>
<line x1="917.0" y1="273" x2="917.0" y2="314" stroke="#000" stroke-width="4"/>
<line x1="935.0" y1="273" x2="935.0" y2="314" stroke="#000" stroke-width="4"/>
<line x1="953.0" y1="273" x2="953.0" y2="314" stroke="#000" stroke-width="4"/>
<line x1="971.0" y1="273" x2="971.0" y2="314" stroke="#000" stroke-width="4"/>
<line x1="926.0" y1="339" x2="926.0" y2="380" stroke="#000" stroke-width="4"/>
<line x1="944.0" y1="339" x2="944.0" y2="380" stroke="#000" stroke-width="4"/>
<line x1="962.0" y1="339" x2="962.0" y2="380" stroke="#000" stroke-width="4"/>
<line x1="896.0" y1="405" x2="896.0" y2="446" stroke="#000" stroke-width="4"/>
<line x1="913.0" y1="405" x2="913.0" y2="446" stroke="#000" stroke-width="4"/>
<line x1="930.0" y1="405" x2="930.0" y2="446" stroke="#000" stroke-width="4"/>
<line x1="947.0" y1="405" x2="947.0" y2="446" stroke="#000" stroke-width="4"/>
<line x1="889.0" y1="405" x2="954.0" y2="446" stroke="#000" stroke-width="4"/>
<line x1="985.0" y1="405" x2="985.0" y2="446" stroke="#000" stroke-width="4"/>
<line x1="1002.0" y1="405" x2="1002.0" y2="446" stroke="#000" stroke-width="4"/>
<line x1="918.5" y1="471" x2="918.5" y2="512" stroke="#000" stroke-width="4"/>
<line x1="935.5" y1="471" x2="935.5" y2="512" stroke="#000" stroke-width="4"/>
<line x1="952.5" y1="471" x2="952.5" y2="512" stroke="#000" stroke-width="4"/>
<line x1="969.5" y1="471" x2="969.5" y2="512" stroke="#000" stroke-width="4"/>
<line x1="911.5" y1="471" x2="976.5" y2="512" stroke="#000" stroke-width="4"/>

<text x="1574.0" y="571" text-anchor="middle" class="serif" font-size="39">Total = 25</text>
</svg>
